<svg width="44" height="44" viewBox="0 0 44 44" fill="none" xmlns="http://www.w3.org/2000/svg">
<g clip-path="url(#clip0_1_1571)">
<path d="M15.8272 19.9512C16.2561 18.6537 17.0838 17.5247 18.1923 16.7253C19.3007 15.926 20.6334 15.4971 22 15.4999C23.5492 15.4999 24.9498 16.0499 26.0498 16.9501L29.2508 13.75C27.3002 12.0496 24.8004 11 22 11C17.6642 11 13.9315 13.4732 12.1367 17.0958L15.8272 19.9512Z" fill="#00856F"/>
<path d="M25.7033 27.5119C24.7042 28.1563 23.4355 28.5001 22 28.5001C20.6388 28.5029 19.3112 28.0774 18.2052 27.284C17.0992 26.4905 16.2708 25.3693 15.8372 24.079L12.1339 26.8904C13.0426 28.7295 14.4487 30.2769 16.1927 31.3569C17.9368 32.4369 19.9487 33.0061 22 33C24.6886 33 27.2571 32.0439 29.1812 30.25L25.7042 27.5119H25.7033Z" fill="#00856F"/>
<path d="M29.1812 30.25C31.1932 28.3727 32.4995 25.5787 32.4995 22C32.4995 21.3492 32.3996 20.6497 32.2502 19.9998H22V24.2504H27.8997C27.6091 25.6795 26.8272 26.7859 25.7043 27.5119L29.1812 30.25Z" fill="#00856F"/>
<path d="M15.8372 24.079C15.613 23.4088 15.499 22.7067 15.4999 22C15.4999 21.2832 15.6145 20.5947 15.8272 19.9512L12.1367 17.0958C11.3817 18.62 10.9925 20.2991 11 22C11 23.76 11.4079 25.4192 12.1339 26.8904L15.8372 24.079Z" fill="#00856F"/>
</g>
<g clip-path="url(#clip1_1_1571)">
<path d="M15.8272 19.9512C16.2561 18.6537 17.0838 17.5247 18.1923 16.7253C19.3007 15.926 20.6334 15.4971 22 15.4999C23.5492 15.4999 24.9498 16.0499 26.0498 16.9501L29.2508 13.75C27.3002 12.0496 24.8004 11 22 11C17.6642 11 13.9315 13.4732 12.1367 17.0958L15.8272 19.9512Z" fill="#00856F"/>
<path d="M25.7033 27.5119C24.7042 28.1563 23.4355 28.5001 22 28.5001C20.6388 28.5029 19.3112 28.0774 18.2052 27.284C17.0992 26.4905 16.2708 25.3693 15.8372 24.079L12.1339 26.8904C13.0426 28.7295 14.4487 30.2769 16.1927 31.3569C17.9368 32.4369 19.9487 33.0061 22 33C24.6886 33 27.2571 32.0439 29.1812 30.25L25.7042 27.5119H25.7033Z" fill="#00856F"/>
<path d="M29.1812 30.25C31.1932 28.3727 32.4995 25.5787 32.4995 22C32.4995 21.3492 32.3996 20.6497 32.2502 19.9998H22V24.2504H27.8997C27.6091 25.6795 26.8272 26.7859 25.7043 27.5119L29.1812 30.25Z" fill="#00856F"/>
<path d="M15.8372 24.079C15.613 23.4088 15.499 22.7067 15.4999 22C15.4999 21.2832 15.6145 20.5947 15.8272 19.9512L12.1367 17.0958C11.3817 18.62 10.9925 20.2991 11 22C11 23.76 11.4079 25.4192 12.1339 26.8904L15.8372 24.079Z" fill="#00856F"/>
</g>
<rect opacity="0.14" x="1" y="1" width="42" height="42" rx="21" fill="white" stroke="#00856F"/>
<defs>
<clipPath id="clip0_1_1571">
<rect width="22" height="22" fill="white" transform="translate(11 11)"/>
</clipPath>
<clipPath id="clip1_1_1571">
<rect width="22" height="22" fill="white" transform="translate(11 11)"/>
</clipPath>
</defs>
</svg>
